<svg width="5639" height="5424" viewBox="0 0 5639 5424" fill="none" xmlns="http://www.w3.org/2000/svg">
<path d="M1776.31 3752.79C1658.32 3802.21 1613.51 3923.34 1690.62 3992.49C1849.28 4134.79 2502.43 4064.5 2533.16 3968.04C2563.44 3873.01 2022.5 3649.65 1776.31 3752.79Z" stroke="#E9D0B2" stroke-width="15" stroke-miterlimit="10"/>
<path d="M2068.65 3436.29C2338.15 3341.86 2790.67 4014.17 2603.88 4172.89C2489.04 4270.49 2211.03 4258.3 1984.31 4226.22C1771.48 4196.12 1467.36 4073.01 1392.34 3868.56C1352.61 3760.02 1376.46 3605.38 1460.6 3551.23C1525.71 3509.33 1613.62 3528.18 1633.02 3521.21C1725.47 3559.57 1739.03 3574.48 1812.69 3583.47C1908.97 3595.24 1994.54 3462.25 2068.65 3436.29Z" stroke="#E9D0B2" stroke-width="15" stroke-miterlimit="10"/>
<path d="M2342.09 3105.62C2655.09 3155.61 2995.22 4137.59 2655.69 4363.58C2439.46 4507.51 2062.48 4443.95 1799.73 4367.86C1558.36 4297.97 1156.45 4064.73 1075.14 3730.46C1027.87 3536.23 1085.31 3263 1249.87 3183.97C1381.05 3120.99 1550.08 3175.14 1579.84 3179.31C1755.74 3273.97 1769.97 3322.13 1900.94 3354.54C2074.37 3397.42 2211.28 3084.63 2342.09 3105.62Z" stroke="#E9D0B2" stroke-width="15" stroke-miterlimit="10"/>
<path d="M2595.71 2777.15C2941.3 2869.29 3179.95 4262.41 2687.68 4556.43C2369.97 4746.18 1893.92 4632.35 1595.32 4511.68C1325.19 4402.54 827.177 4059.1 738.124 3594.53C684.402 3314.36 774.054 2923.13 1019.3 2818.88C1216.37 2735.08 1468.05 2821.08 1506.78 2839.59C1777.53 2969.06 1780.96 3071.95 1969.46 3127.79C2219.85 3202.16 2414.72 2728.99 2595.71 2777.15Z" stroke="#E9D0B2" stroke-width="15" stroke-miterlimit="10"/>
<path d="M2834.08 2463.62C3216.79 2596.55 3348.8 4400.77 2704.41 4764.26C2284.8 4998.84 1709.87 4836.01 1375.68 4670.48C1076.48 4522.33 482.991 4068.73 385.742 3473.54C325.965 3107.68 447.433 2598.32 773.397 2468.67C1036.47 2364.13 1368.8 2486.75 1418.41 2514.72C1767.42 2711.46 1776.45 2837.13 2022.41 2915.99C2349.83 3021.88 2604.99 2384.07 2834.08 2463.62Z" stroke="#E9D0B2" stroke-width="15" stroke-miterlimit="10"/>
<path d="M516.779 2122.64C845.741 1997.39 1258.53 2156.45 1319.33 2194.04C1745.66 2457.62 1761.43 2605.55 2064.77 2708.17C2469.27 2845.02 2786.24 2040.95 3061.54 2154.06C3484.41 2327.8 3508.14 4545.44 2710.24 4976.05C2189.61 5257.02 1514.69 5043.83 1145.11 4833.23C816.895 4646.23 128.353 4082.46 22.6788 3356.54C-43.0108 2905.03 110.046 2277.47 516.779 2122.64Z" stroke="#E9D0B2" stroke-width="15" stroke-miterlimit="10"/>
<path d="M4076.47 1894.14C3946.89 1893.05 3791.49 1668.29 3907.7 1630.76C3974.82 1609.05 4152.53 1643.38 4222.33 1704.48C4320.63 1790.45 4165.64 1894.91 4076.47 1894.14Z" stroke="#E9D0B2" stroke-width="15" stroke-miterlimit="10"/>
<path d="M3724.32 1662.23C3737 1632.07 3796.38 1618.68 3850.55 1581.94C3960.46 1507.4 3976.22 1471.98 4054.28 1427.02C4084.72 1409.45 4125.68 1386.38 4165.66 1396.94C4226.9 1413.14 4242.18 1483.23 4319.89 1606.68C4420.65 1767.09 4458.81 1808.56 4430.02 1893.56C4423.31 1913.33 4414.63 1977.34 4366.1 2016.38C4298.9 2070.37 4220.13 2028.67 4121.65 2064.4C4003.38 2107.24 3944.75 2183.5 3893.42 2149.8C3857.27 2126.06 3855.92 2061.06 3828.85 1947.86C3808.23 1861.63 3795.26 1805.05 3770.18 1758.89C3740.11 1703.94 3710.21 1695.77 3724.32 1662.23Z" stroke="#E9D0B2" stroke-width="15" stroke-miterlimit="10"/>
<path d="M3526.25 1725.1C3528.45 1671.63 3612.42 1645.75 3681.62 1568.49C3823.54 1410 3757.79 1296.75 3871.55 1180.95C3919.81 1131.8 3995.56 1084.18 4071.47 1093.41C4179.2 1106.52 4215.39 1217.83 4381.24 1443.5C4598.07 1738.55 4690.44 1796.34 4670.19 1953.57C4666.05 1985.62 4662.02 2108.67 4577.28 2182.73C4464.27 2281.5 4328.8 2191.64 4151.87 2265.88C3954.17 2348.71 3880.29 2525.8 3813.63 2489.15C3767.33 2463.7 3785.07 2361.22 3749.48 2161.34C3724.29 2019.27 3708.72 1936.24 3658.37 1868.23C3594.82 1782.46 3523.88 1783.17 3526.25 1725.1Z" stroke="#E9D0B2" stroke-width="15" stroke-miterlimit="10"/>
<path d="M3327.98 1787.28C3319.41 1710.65 3428.14 1672.12 3512.48 1554.32C3686.13 1311.83 3536.42 1122.29 3688.62 934.172C3753.76 853.682 3865.49 781.676 3977.08 789.188C4131.73 799.584 4188.88 951.252 4442.62 1279.64C4776.21 1708.71 4919.87 1784.25 4910.44 2012.9C4908.59 2057.48 4909.44 2239.26 4788.54 2348.48C4629.69 2491.95 4437.25 2353.77 4182.2 2466.73C3904.88 2589.55 3816 2867.38 3733.8 2827.91C3677.39 2800.6 3713.52 2660.76 3670.08 2374.19C3640.09 2176.28 3622.01 2067.2 3546.5 1976.94C3449.16 1860.63 3337.15 1869.83 3327.98 1787.28Z" stroke="#E9D0B2" stroke-width="15" stroke-miterlimit="10"/>
<path d="M3129.25 1849.29C3110.03 1749.58 3243.21 1698.25 3342.89 1540.01C3547.9 1213.37 3313.9 948.282 3505.26 687.247C3587.05 575.567 3735.06 479.14 3882.26 484.795C4083.95 492.564 4161.15 685.105 4503.42 1115.63C4952.71 1679.46 5148.24 1772.57 5149.98 2072.08C5150.32 2129.21 5155.98 2369.53 4999.07 2514.06C4794.17 2702.06 4545.12 2515.63 4211.79 2667.44C3854.78 2830.08 3750.91 3208.9 3653.51 3166.52C3586.97 3137.44 3641.52 2960.12 3590.22 2586.89C3555.35 2333.12 3534.87 2198.13 3434.2 2085.51C3302.99 1938.81 3149.93 1956.52 3129.25 1849.29Z" stroke="#E9D0B2" stroke-width="15" stroke-miterlimit="10"/>
<path d="M2930.16 1911.27C2962.35 2043.23 3156.39 2016.95 3321.44 2194.04C3447.31 2329.06 3470.18 2489.9 3509.94 2799.57C3568.97 3259.43 3496.09 3474.25 3572.77 3505.07C3685.5 3550.4 3804.34 3070.55 4241.09 2868.12C4652.54 2677.44 4958.71 2912.51 5209.3 2679.61C5402.49 2500.04 5391.75 2201.16 5389.23 2131.21C5375.92 1760.92 5128.85 1650.15 4563.83 951.567C4132.99 418.901 4035.83 185.544 3786.98 180.374C3604.19 176.575 3419.83 297.481 3321.44 440.295C3091.04 774.478 3409.78 1115.26 3172.92 1525.68C3058.14 1724.56 2900.2 1788.51 2930.16 1911.27Z" stroke="#E9D0B2" stroke-width="15" stroke-miterlimit="10"/>
<path d="M4576.82 4035.19C4543.01 4018.06 4472.01 4051.07 4465.72 4102.52C4458.61 4160.87 4538.95 4209.14 4574.25 4194.14C4616.01 4176.38 4621.69 4057.87 4576.82 4035.19Z" stroke="#E9D0B2" stroke-width="15" stroke-miterlimit="10"/>
<path d="M4672.1 4345.24C4729.74 4291.34 4754.93 4192.43 4783.75 4022.88C4812.31 3854.76 4807.82 3734.4 4782.72 3725.66C4769.04 3720.95 4730.28 3757.82 4697.04 3784.84C4634.8 3835.28 4528.27 3829.68 4500.97 3835.14C4401 3855.13 4371.64 3892.27 4329.86 3963.39C4310.52 3996.23 4265.43 4069.07 4245.58 4154.76C4215.3 4284.52 4079.61 4324.5 4096.15 4376.52C4110.06 4419.93 4244.49 4430.47 4331.66 4431.7C4456.58 4433.47 4582.99 4428.47 4672.1 4345.24Z" stroke="#E9D0B2" stroke-width="15" stroke-miterlimit="10"/>
<path d="M4772.01 4490.14C4866.74 4393.83 4904.02 4232.19 4961.42 3929.91C5019.74 3626.18 5019.37 3417.84 4990.64 3410.07C4969.08 3404.13 4899.25 3479.22 4839.9 3532.89C4728.02 3634.49 4527.76 3617.78 4486.49 3624.29C4298.27 3653.37 4251.89 3723.03 4178.95 3854.71C4148.56 3909.55 4065.19 4043.22 4027.2 4201.09C3968.74 4442.93 3691.56 4506.25 3714.49 4595.91C3733.66 4670.57 3990.7 4682.02 4152.44 4675.88C4380.81 4667 4611.93 4652.95 4772.01 4490.14Z" stroke="#E9D0B2" stroke-width="15" stroke-miterlimit="10"/>
<path d="M4871.37 4634.1C5003.29 4495.4 5052.22 4270.92 5138.53 3836C5226.18 3396.56 5230.26 3100.74 5197.99 3093.37C5168.43 3086.51 5067.58 3199.62 4982.3 3280.08C4821.08 3433.09 4526.81 3404.96 4471.55 3412.33C4195.14 3449.23 4131.48 3552.43 4027.57 3744.94C3986.1 3821.74 3864.52 4016.29 3808.34 4246.24C3721.77 4600.19 3303.07 4686.79 3332.35 4814.13C3356.8 4920.04 3736.51 4932.86 3972.77 4918.84C4304.53 4900.13 4640.69 4876.65 4871.37 4634.1Z" stroke="#E9D0B2" stroke-width="15" stroke-miterlimit="10"/>
<path d="M4970.42 4777.97C5139.61 4596.88 5200.13 4309.54 5315.35 3741.97C5432.45 3166.89 5441.01 2783.66 5405.08 2776.55C5367.5 2769.04 5235.58 2919.71 5124.42 3027.02C4913.53 3231.1 4525.62 3191.82 4456.36 3200.25C4091.75 3244.49 4010.32 3381.48 3875.92 3635.03C3823.19 3733.74 3663.57 3989.21 3589.25 4291.29C3474.5 4757.32 2914.28 4867.22 2949.98 5032.23C2979.65 5169.33 3482.04 5183.01 3792.83 5161.71C4227.84 5132.37 4669.25 5100.35 4970.42 4777.97Z" stroke="#E9D0B2" stroke-width="15" stroke-miterlimit="10"/>
<path d="M4441.02 2988.09C3988.25 3039.5 3889.8 3210.87 3724.15 3525.06C3660.45 3645.86 3462.47 3962.07 3369.99 4336.24C3227.19 4914.41 2525.37 5047.6 2567.44 5250.25C2602.4 5418.77 3227.42 5433.05 3612.76 5404.49C4151.18 5364.5 4697.75 5324 5069.35 4921.78C5275.82 4698.28 5347.91 4348.15 5492.05 3647.88C5638.37 2937.13 5651.42 2466.59 5612.01 2459.68C5566.31 2451.68 5403.51 2639.62 5266.42 2773.87C5005.83 3028.99 4524.3 2978.63 4441.02 2988.09Z" stroke="#E9D0B2" stroke-width="15" stroke-miterlimit="10"/>
<path d="M759.545 1614.22C810.954 1811.3 1179.96 1718.73 1619.22 2162.62C1776.62 2321.69 1882.15 2488.07 2090.47 2513.95C2111.49 2516.54 2320.19 2539.37 2467.47 2405.41C2652.78 2236.89 2539.68 2003.1 2755.94 1677.06C2835.59 1556.95 2848.85 1591.83 2907.31 1497.11C3156.82 1092.81 2776.27 682.363 2995.85 271.775C3096.92 82.7755 3247.18 39.3888 3232.9 14.7106C3171.27 -91.1712 620.626 1083.15 759.545 1614.22Z" stroke="#E9D0B2" stroke-width="15" stroke-miterlimit="10"/>
<path d="M2147.59 2244.51C2160.22 2242.8 2297.82 2253.08 2392.22 2158.37C2511.57 2038.78 2426.49 1874.11 2563.24 1651.81C2613.56 1569.95 2620.56 1592.14 2656.38 1527.39C2809.17 1251.07 2534.93 973.103 2669.23 702.614C2731.38 577.395 2829.48 548.69 2814.89 536.465C2748.88 480.711 1065.32 1304.37 1197.55 1662.78C1247.13 1797.19 1517.8 1749.49 1827.51 2039C1940.13 2144.2 2016.39 2262.31 2147.59 2244.51Z" stroke="#E9D0B2" stroke-width="15" stroke-miterlimit="10"/>
<path d="M2204.72 1975.05C2208.31 1966 2275.6 1966.2 2316.96 1911.33C2370.65 1840.15 2313.48 1745.32 2370.54 1626.59C2391.47 1583 2392.33 1592.31 2405.47 1557.67C2461.88 1408.66 2293.37 1264.01 2342.64 1133.43C2365.68 1071.96 2408.53 1061.48 2397.1 1058.19C2313.59 1070.04 1511.72 1526.39 1635.42 1711.33C1683.71 1783.6 1856.59 1780.14 2035.67 1915.39C2103.73 1966.8 2148.28 2004.44 2204.72 1975.05Z" stroke="#E9D0B2" stroke-width="15" stroke-miterlimit="10"/>
<path d="M2261.84 1705.62C2217.51 1576.09 2043.01 1532.05 1979.09 1579.95C1884.84 1650.67 1965.23 1742.75 2073.34 1759.89C2154.14 1772.6 2312.56 1853.86 2261.84 1705.62Z" stroke="#E9D0B2" stroke-width="15" stroke-miterlimit="10"/>
</svg>
